<svg xmlns="http://www.w3.org/2000/svg" version="1.1" xmlns:xlink="http://www.w3.org/1999/xlink" xmlns:svgjs="http://svgjs.dev/svgjs" width="1000" height="750" viewBox="0 0 1000 750"><rect width="1000" height="750" fill="#ffffff"></rect><g transform="matrix(0.834,0,0,0.834,82.49454545454546,115.4193570850203)"><svg viewBox="0 0 396 247" data-background-color="#ffffff" preserveAspectRatio="xMidYMid meet" height="623" width="1000" xmlns="http://www.w3.org/2000/svg" xmlns:xlink="http://www.w3.org/1999/xlink"><g id="tight-bounds" transform="matrix(1,0,0,1,0.2400000000000091,-0.09999999999999432)"><svg viewBox="0 0 395.52 247.2" height="247.2" width="395.52"><g><svg></svg></g><g><svg viewBox="0 0 395.52 247.2" height="247.2" width="395.52"><g transform="matrix(1,0,0,1,75.54432,106.69269249011857)"><svg viewBox="0 0 244.43135999999998 33.81461501976284" height="33.81461501976284" width="244.43135999999998"><g><svg viewBox="0 0 244.43135999999998 33.81461501976284" height="33.81461501976284" width="244.43135999999998"><g><svg viewBox="0 0 244.43135999999998 33.81461501976284" height="33.81461501976284" width="244.43135999999998"><g><svg viewBox="0 0 244.43135999999998 33.81461501976284" height="33.81461501976284" width="244.43135999999998"><g><svg viewBox="0 0 244.43135999999998 33.81461501976284" height="33.81461501976284" width="244.43135999999998" id="textblock"><g><svg viewBox="0 0 244.43135999999998 33.81461501976284" height="33.81461501976284" width="244.43135999999998"><g transform="matrix(1,0,0,1,0,0)"><svg width="244.43135999999998" viewBox="5.420000076293945 -40.5 296.4700012207031 41.0099983215332" height="33.81461501976284" data-palette-color="#ee3e38"><path d="M5.42 0L5.42-38.16 13.16-38.16 13.16-6.79 35.35-6.79 35.35 0 5.42 0ZM40.57-14.5L40.57-14.5Q40.57-17.43 41.77-20.1 42.97-22.78 45.21-24.83 47.46-26.88 50.72-28.1 53.98-29.32 58.13-29.32L58.13-29.32Q62.25-29.32 65.56-28.09 68.87-26.86 71.18-24.71 73.48-22.56 74.72-19.65 75.95-16.75 75.95-13.43L75.95-13.43Q75.95-13.01 75.94-12.54 75.93-12.06 75.88-11.67L75.88-11.67 48.63-11.67Q49.09-10.38 50.13-9.3 51.17-8.23 52.73-7.45 54.29-6.67 56.35-6.24 58.4-5.81 60.89-5.81L60.89-5.81Q63.38-5.81 65.84-6.34 68.31-6.86 70.55-7.67L70.55-7.67 73-2.15Q71.58-1.49 70.13-0.99 68.67-0.49 67.1-0.16 65.52 0.17 63.8 0.34 62.08 0.51 60.18 0.51L60.18 0.51Q55.32 0.51 51.66-0.66 48-1.83 45.53-3.86 43.06-5.88 41.82-8.62 40.57-11.35 40.57-14.5ZM48.63-17.31L68.28-17.31Q67.89-18.51 67.08-19.54 66.26-20.58 65.04-21.35 63.82-22.12 62.2-22.56 60.59-23 58.66-23L58.66-23Q56.61-23 54.93-22.53 53.24-22.07 51.98-21.29 50.71-20.51 49.86-19.48 49.02-18.46 48.63-17.31L48.63-17.31ZM82.34-9.08L82.34-9.08Q82.34-11.16 83.25-12.87 84.15-14.58 85.96-15.81 87.76-17.04 90.46-17.71 93.16-18.38 96.75-18.38L96.75-18.38Q99.41-18.38 102.35-17.99 105.29-17.6 108.42-16.8L108.42-16.8Q108.3-18.16 107.59-19.32 106.88-20.48 105.62-21.33 104.37-22.17 102.6-22.63 100.83-23.1 98.58-23.1L98.58-23.1Q97.36-23.1 95.89-22.95 94.43-22.8 92.87-22.51 91.3-22.22 89.78-21.78 88.25-21.34 86.93-20.73L86.93-20.73 84.74-26.66Q86.37-27.25 88.24-27.73 90.11-28.22 92.06-28.58 94.01-28.93 95.97-29.13 97.92-29.32 99.75-29.32L99.75-29.32Q107.83-29.32 111.76-25.2 115.69-21.07 115.69-12.55L115.69-12.55 115.69 0 108.47 0 108.47-2.71Q107.34-2.05 106.01-1.46 104.68-0.88 103.12-0.44 101.56 0 99.76 0.26 97.97 0.51 95.97 0.51L95.97 0.51Q92.6 0.51 90.05-0.22 87.5-0.95 85.79-2.25 84.08-3.54 83.21-5.29 82.34-7.03 82.34-9.08ZM89.96-9.33L89.96-9.33Q89.96-8.62 90.33-7.97 90.69-7.32 91.5-6.82 92.3-6.32 93.56-6.02 94.82-5.71 96.6-5.71L96.6-5.71Q98.51-5.71 100.29-6.05 102.07-6.4 103.61-6.96 105.15-7.52 106.39-8.25 107.64-8.98 108.47-9.77L108.47-9.77 108.47-11.04Q106.81-11.5 105.18-11.82 103.56-12.13 102.08-12.32 100.61-12.5 99.3-12.57 97.99-12.65 97.02-12.65L97.02-12.65Q94.99-12.65 93.65-12.38 92.3-12.11 91.47-11.66 90.64-11.21 90.3-10.6 89.96-9.99 89.96-9.33ZM123.5-14.33L123.5-14.33Q123.5-17.5 124.66-20.25 125.82-23 128.06-25.01 130.29-27.03 133.53-28.17 136.76-29.32 140.91-29.32L140.91-29.32Q142.72-29.32 144.55-29.1 146.38-28.88 148.08-28.48 149.77-28.08 151.26-27.53 152.75-26.98 153.85-26.32L153.85-26.32 150.51-20.87Q148.14-21.97 146.03-22.49 143.91-23 141.74-23L141.74-23Q139.25-23 137.27-22.35 135.3-21.7 133.92-20.54 132.54-19.38 131.82-17.81 131.1-16.24 131.1-14.38L131.1-14.38Q131.1-12.52 131.87-10.95 132.63-9.38 134.04-8.24 135.44-7.1 137.43-6.46 139.42-5.81 141.86-5.81L141.86-5.81Q144.55-5.81 146.93-6.57 149.31-7.32 151.36-8.59L151.36-8.59 154.7-3.15Q153.41-2.37 151.9-1.7 150.38-1.03 148.66-0.54 146.94-0.05 145.05 0.23 143.16 0.51 141.13 0.51L141.13 0.51Q137 0.51 133.73-0.61 130.46-1.73 128.19-3.72 125.92-5.71 124.71-8.42 123.5-11.13 123.5-14.33ZM161.12-9.08L161.12-9.08Q161.12-11.16 162.03-12.87 162.93-14.58 164.74-15.81 166.54-17.04 169.24-17.71 171.94-18.38 175.53-18.38L175.53-18.38Q178.19-18.38 181.13-17.99 184.07-17.6 187.2-16.8L187.2-16.8Q187.07-18.16 186.37-19.32 185.66-20.48 184.4-21.33 183.14-22.17 181.37-22.63 179.6-23.1 177.36-23.1L177.36-23.1Q176.14-23.1 174.67-22.95 173.21-22.8 171.65-22.51 170.08-22.22 168.56-21.78 167.03-21.34 165.71-20.73L165.71-20.73 163.52-26.66Q165.15-27.25 167.02-27.73 168.89-28.22 170.84-28.58 172.79-28.93 174.75-29.13 176.7-29.32 178.53-29.32L178.53-29.32Q186.61-29.32 190.54-25.2 194.47-21.07 194.47-12.55L194.47-12.55 194.47 0 187.25 0 187.25-2.71Q186.12-2.05 184.79-1.46 183.46-0.88 181.9-0.44 180.34 0 178.54 0.26 176.75 0.51 174.75 0.51L174.75 0.51Q171.38 0.51 168.83-0.22 166.27-0.95 164.57-2.25 162.86-3.54 161.99-5.29 161.12-7.03 161.12-9.08ZM168.74-9.33L168.74-9.33Q168.74-8.62 169.11-7.97 169.47-7.32 170.28-6.82 171.08-6.32 172.34-6.02 173.6-5.71 175.38-5.71L175.38-5.71Q177.28-5.71 179.07-6.05 180.85-6.4 182.39-6.96 183.93-7.52 185.17-8.25 186.42-8.98 187.25-9.77L187.25-9.77 187.25-11.04Q185.59-11.5 183.96-11.82 182.34-12.13 180.86-12.32 179.38-12.5 178.08-12.57 176.77-12.65 175.8-12.65L175.8-12.65Q173.77-12.65 172.43-12.38 171.08-12.11 170.25-11.66 169.42-11.21 169.08-10.6 168.74-9.99 168.74-9.33ZM204.02 0L204.02-28.81 211.24-28.81 211.24-24.66Q213.63-26.44 216.3-27.73 218.96-29.03 221.59-29.71L221.59-29.71 223.72-23.1Q219.54-22.68 216.38-21.23 213.22-19.78 211.24-17.14L211.24-17.14 211.24 0 204.02 0ZM226.86-14.28L226.86-14.28Q226.86-17.72 228.16-20.5 229.45-23.27 231.74-25.23 234.02-27.2 237.16-28.26 240.29-29.32 243.95-29.32L243.95-29.32Q245.52-29.32 247.04-29.13 248.57-28.93 249.97-28.59 251.38-28.25 252.61-27.77 253.84-27.29 254.79-26.73L254.79-26.73 254.79-40.5 262.02-40.5 262.02 0 254.79 0 254.79-2.71Q253.84-2.05 252.55-1.46 251.25-0.88 249.77-0.44 248.28 0 246.68 0.26 245.08 0.51 243.52 0.51L243.52 0.51Q239.85 0.51 236.79-0.56 233.73-1.64 231.53-3.59 229.33-5.54 228.1-8.26 226.86-10.99 226.86-14.28ZM234.46-14.28L234.46-14.28Q234.46-12.55 235.15-11.01 235.85-9.47 237.16-8.31 238.46-7.15 240.3-6.48 242.15-5.81 244.44-5.81L244.44-5.81Q245.91-5.81 247.37-6.09 248.84-6.37 250.19-6.88 251.55-7.4 252.73-8.13 253.92-8.86 254.79-9.77L254.79-9.77 254.79-19.75Q253.7-20.63 252.48-21.24 251.25-21.85 249.99-22.24 248.72-22.63 247.42-22.81 246.13-23 244.91-23L244.91-23Q242.42-23 240.48-22.33 238.53-21.66 237.2-20.48 235.87-19.31 235.17-17.72 234.46-16.14 234.46-14.28ZM268.88-3.37L272-8.84Q274.93-7.08 278.45-6.25 281.96-5.42 285.65-5.42L285.65-5.42Q288.14-5.42 289.8-5.76 291.46-6.1 292.46-6.64 293.46-7.18 293.88-7.86 294.29-8.54 294.29-9.25L294.29-9.25Q294.29-10.28 293.4-11.01 292.51-11.74 290.46-11.74L290.46-11.74Q289.51-11.74 288.41-11.62 287.31-11.5 286.1-11.36 284.89-11.23 283.59-11.11 282.28-10.99 280.94-10.99L280.94-10.99Q278.01-10.99 275.95-11.62 273.88-12.26 272.59-13.35 271.3-14.45 270.71-15.95 270.12-17.46 270.12-19.19L270.12-19.19Q270.12-21.39 271.15-23.24 272.17-25.1 274.08-26.45 275.98-27.81 278.68-28.56 281.38-29.32 284.7-29.32L284.7-29.32Q286.43-29.32 288.32-29.11 290.22-28.91 292.05-28.56 293.88-28.22 295.56-27.77 297.25-27.32 298.54-26.81L298.54-26.81 296.27-21.19Q293.51-22.22 290.77-22.81 288.02-23.41 285.11-23.41L285.11-23.41Q283.09-23.41 281.68-23.11 280.28-22.8 279.4-22.3 278.52-21.8 278.12-21.15 277.72-20.51 277.72-19.8L277.72-19.8Q277.72-19.29 277.92-18.87 278.13-18.46 278.61-18.15 279.08-17.85 279.85-17.69 280.62-17.53 281.75-17.53L281.75-17.53Q282.77-17.53 283.92-17.65 285.07-17.77 286.31-17.91 287.56-18.04 288.89-18.16 290.22-18.29 291.61-18.29L291.61-18.29Q294.2-18.29 296.14-17.68 298.08-17.07 299.35-15.97 300.62-14.87 301.25-13.38 301.89-11.89 301.89-10.13L301.89-10.13Q301.89-7.86 300.84-5.91 299.79-3.96 297.71-2.53 295.64-1.1 292.55-0.29 289.46 0.51 285.41 0.51L285.41 0.51Q282.92 0.51 280.6 0.21 278.28-0.1 276.18-0.62 274.08-1.15 272.24-1.86 270.39-2.56 268.88-3.37L268.88-3.37Z" opacity="1" transform="matrix(1,0,0,1,0,0)" fill="#ee3e38" class="undefined-text-0" data-fill-palette-color="primary" id="text-0"></path></svg></g></svg></g></svg></g></svg></g></svg></g></svg></g></svg></g><g><path d="M0 123.6c0-68.262 55.338-123.6 123.6-123.6 61.139 0 111.911 44.391 121.841 102.701l-1.548 0c-9.913-57.464-59.998-101.177-120.293-101.176-67.42 0-122.075 54.655-122.075 122.075 0 67.42 54.655 122.075 122.075 122.075 60.295 0 110.38-43.713 120.293-101.176h1.548c-9.93 58.31-60.701 102.701-121.841 102.701-68.262 0-123.6-55.338-123.6-123.6z" fill="#ee3e38" stroke="transparent" data-fill-palette-color="tertiary"></path></g></svg></g><defs></defs></svg><rect width="395.52" height="247.2" fill="none" stroke="none" visibility="hidden"></rect></g></svg></g></svg>