<?xml version="1.0" standalone="no"?>
<!DOCTYPE svg PUBLIC "-//W3C//DTD SVG 20010904//EN"
 "http://www.w3.org/TR/2001/REC-SVG-20010904/DTD/svg10.dtd">
<svg version="1.0" xmlns="http://www.w3.org/2000/svg"
 width="1000.000000pt" height="623.000000pt" viewBox="0 0 1000.000000 623.000000"
 preserveAspectRatio="xMidYMid meet">

<g transform="translate(0.000000,623.000000) scale(0.100000,-0.100000)"
fill="#000000" stroke="none">
<path d="M2870 6220 c-716 -69 -1344 -347 -1856 -821 -564 -523 -911 -1224
-985 -1994 -15 -160 -6 -585 16 -725 91 -579 307 -1080 652 -1510 788 -983
2088 -1395 3300 -1046 188 54 302 99 508 201 451 222 831 539 1131 943 251
337 446 765 534 1172 11 52 22 105 25 117 4 18 1 23 -15 23 -14 0 -20 -7 -20
-21 0 -32 -65 -293 -98 -394 -259 -786 -818 -1435 -1552 -1805 -873 -439
-1905 -435 -2779 10 -842 430 -1449 1231 -1625 2148 -45 236 -51 304 -51 602
1 304 10 398 61 645 130 615 470 1204 939 1628 418 378 913 629 1458 741 213
44 372 59 622 59 246 0 392 -14 610 -58 918 -185 1716 -796 2136 -1635 75
-150 153 -340 193 -472 32 -107 86 -330 86 -357 0 -14 6 -21 20 -21 16 0 19 5
15 23 -2 12 -16 72 -29 132 -129 582 -425 1108 -863 1535 -167 163 -264 242
-448 365 -410 273 -844 435 -1340 500 -143 19 -512 27 -645 15z"/>
<path d="M7110 3400 c0 -77 -3 -140 -7 -140 -5 0 -37 10 -73 21 -81 26 -203
28 -281 6 -94 -28 -175 -100 -205 -184 -18 -52 -17 -160 2 -217 22 -65 97
-138 171 -167 82 -31 214 -32 298 0 99 37 95 36 95 7 0 -26 1 -26 70 -26 l70
0 0 420 0 420 -70 0 -70 0 0 -140z m-63 -256 l58 -29 3 -107 3 -107 -38 -25
c-143 -95 -336 -66 -382 57 -38 99 18 202 127 238 54 17 166 4 229 -27z"/>
<path d="M1920 3095 l0 -395 310 0 310 0 0 70 0 70 -230 0 -230 0 0 325 0 325
-80 0 -80 0 0 -395z"/>
<path d="M2945 3299 c-118 -15 -213 -77 -263 -173 -36 -70 -37 -179 -4 -248
48 -97 152 -161 296 -180 99 -13 221 -2 298 29 l47 18 -24 53 c-13 28 -28 52
-32 52 -4 0 -33 -7 -63 -15 -74 -20 -195 -19 -260 2 -56 18 -120 70 -120 97 0
14 28 16 280 16 l280 0 0 38 c0 204 -192 342 -435 311z m192 -143 c34 -17 68
-49 84 -78 9 -17 -3 -18 -196 -18 -171 0 -205 2 -205 14 0 22 77 83 118 95 51
14 161 7 199 -13z"/>
<path d="M3786 3299 c-77 -9 -204 -38 -210 -48 -2 -3 6 -30 17 -59 17 -46 23
-53 41 -47 140 41 282 45 351 9 37 -19 87 -85 74 -98 -3 -3 -57 2 -121 11 -98
15 -130 15 -197 6 -86 -13 -143 -37 -178 -75 -71 -76 -50 -198 42 -257 97 -61
275 -64 401 -7 l54 25 0 -30 0 -29 76 0 76 0 -5 183 c-5 212 -17 262 -77 330
-66 75 -185 105 -344 86z m213 -353 c45 -9 57 -15 59 -32 6 -41 -130 -95 -242
-95 -74 0 -110 12 -131 45 -20 30 -12 61 18 78 47 26 176 28 296 4z"/>
<path d="M4663 3299 c-79 -10 -139 -36 -192 -85 -62 -55 -84 -104 -89 -199 -5
-102 18 -164 87 -228 113 -106 330 -125 501 -45 l49 23 -32 53 c-23 37 -36 50
-47 46 -125 -52 -223 -59 -306 -20 -65 30 -96 73 -102 141 -9 109 67 184 196
192 61 4 94 -2 187 -32 16 -5 26 4 52 47 l33 53 -25 12 c-66 35 -214 55 -312
42z"/>
<path d="M5426 3300 c-70 -9 -153 -26 -193 -41 l-22 -8 18 -53 c21 -60 17 -59
126 -34 149 34 260 15 318 -53 36 -43 36 -65 0 -58 -16 3 -74 11 -129 18 -231
28 -384 -44 -384 -181 0 -50 19 -98 51 -127 88 -81 291 -94 437 -28 l52 24 0
-30 0 -29 75 0 75 0 0 128 c-1 237 -28 343 -104 408 -65 56 -185 80 -320 64z
m192 -352 c45 -7 76 -17 79 -25 13 -35 -83 -87 -184 -101 -122 -16 -214 22
-199 82 15 60 109 74 304 44z"/>
<path d="M6321 3280 c-35 -17 -76 -39 -91 -50 -32 -23 -40 -18 -40 27 l0 33
-70 0 -70 0 0 -295 0 -295 70 0 70 0 0 174 c0 161 1 175 21 200 30 39 115 84
182 97 31 6 57 17 56 23 -2 30 -37 111 -50 114 -8 1 -43 -11 -78 -28z"/>
<path d="M7648 3299 c-92 -13 -173 -61 -204 -121 -8 -15 -14 -51 -14 -81 0
-66 27 -111 85 -141 42 -22 124 -26 292 -16 76 5 84 3 105 -18 21 -21 22 -24
8 -50 -22 -38 -64 -56 -147 -60 -90 -5 -192 12 -260 43 l-52 23 -29 -51 c-17
-29 -27 -56 -23 -60 18 -19 156 -58 244 -69 111 -14 215 -2 298 33 141 61 172
227 58 311 -41 30 -113 38 -251 26 -114 -10 -129 -10 -153 6 -19 13 -25 24
-23 43 5 41 45 63 123 69 64 5 100 1 241 -33 17 -4 24 4 40 44 10 26 20 51 22
54 4 10 -163 46 -238 52 -36 2 -91 1 -122 -4z"/>
</g>
</svg>
